# xmcd
#
# Track frame offsets: 
#        150
#        19200
#        41167
#        64635
#        86392
#        104322
#        122452
#        143037
#        159887
#        177295
#        191167
#        208605
#        228852
#        251662
#
# Disc length: 3675 seconds
#
# Revision: 0
# Processed by: cddbd v1.5.2PL0 Copyright (c) Steve Scherf et al.
# Submitted via: ExactAudioCopy v1.3
#
DISCID=b40e590e
DTITLE=石川さゆり - 石川さゆり全曲集 港唄
DYEAR=1991
DGENRE=歌謡曲・演歌
TTITLE0=港唄
TTITLE1=越前竹舞い
TTITLE2=うたかた
TTITLE3=天城越え
TTITLE4=みおつくし
TTITLE5=夫婦善哉
TTITLE6=紫陽花ばなし
TTITLE7=津軽海峡・冬景色
TTITLE8=恋のためなら
TTITLE9=ウイスキーが、お好きでしょ
TTITLE10=恋は天下のまわりもの
TTITLE11=裏町夫婦草
TTITLE12=滝の白糸
TTITLE13=風の盆恋歌
EXTD=YEAR: 1991
EXTT0=
EXTT1=
EXTT2=
EXTT3=
EXTT4=
EXTT5=
EXTT6=
EXTT7=
EXTT8=
EXTT9=
EXTT10=
EXTT11=
EXTT12=
EXTT13=
PLAYORDER=
